<svg width="11" height="10" viewBox="0 0 11 10" fill="none" xmlns="http://www.w3.org/2000/svg">
<path fill-rule="evenodd" clip-rule="evenodd" d="M5.49199 6.8935L4.43377 8.37886C4.11524 8.82596 3.95597 9.04951 3.77304 9.01275C3.59012 8.97599 3.52028 8.7064 3.38059 8.16721L3.11195 7.13024C2.9684 6.57614 2.89662 6.29909 2.72843 6.088C2.70952 6.06427 2.68978 6.04129 2.66926 6.01909C2.48671 5.82166 2.23211 5.71858 1.7229 5.5124C0.599074 5.05737 0.0371464 4.82984 0.00260524 4.44197C-0.000927869 4.40229 -0.000867256 4.36235 0.00278622 4.32269C0.0385045 3.93493 0.601109 3.7093 1.72632 3.25805L8.25335 0.640454C9.66021 0.0762498 10.3636 -0.205852 10.7695 0.173334C11.1753 0.55252 10.9927 1.32129 10.6276 2.85883L9.3125 8.39657C9.07542 9.39487 8.95689 9.89402 8.61119 9.98635C8.2655 10.0787 7.93524 9.69942 7.27474 8.94087L5.49199 6.8935ZM4.71389 6.60693C4.66074 6.51452 4.6188 6.40146 4.6188 6.26526C4.6188 6.08375 4.69327 5.94335 4.76952 5.83814C4.8352 5.74752 4.92608 5.65191 5.01385 5.55956C5.0183 5.55488 5.02275 5.5502 5.02718 5.54553L6.99231 3.47679C7.14446 3.31662 7.39764 3.31011 7.55781 3.46226C7.71798 3.61441 7.72448 3.86759 7.57234 4.02776L5.60721 6.09651C5.60571 6.09808 5.60422 6.09965 5.60275 6.1012C5.7921 6.12767 5.96759 6.22147 6.09532 6.36815L7.87807 8.41552C8.07778 8.64488 8.22941 8.81793 8.35117 8.94841C8.40158 8.76682 8.45878 8.5291 8.53415 8.21173L9.84924 2.67399C10.0378 1.8801 10.1571 1.36928 10.1911 1.00689C10.1995 0.917957 10.201 0.853045 10.1997 0.80679C10.1658 0.811687 10.1225 0.81964 10.0681 0.832303C9.7401 0.908637 9.28108 1.09023 8.55113 1.38297L2.0241 4.00056C1.61961 4.16278 1.32228 4.28292 1.10189 4.38412C1.32201 4.48609 1.61904 4.60726 2.02314 4.77088C2.05507 4.7838 2.0871 4.79667 2.11917 4.80956C2.53019 4.9747 3.04604 5.25629 3.3541 5.58947M3.3541 5.58947C3.63198 5.93821 3.7448 6.37804 3.8595 6.82518C3.86842 6.85996 3.87736 6.89478 3.88638 6.92961L4.04574 7.54476L4.71389 6.60693" fill="black"/>
</svg>
